<svg xmlns="http://www.w3.org/2000/svg" viewBox="0 0 211.17 213.35"><defs><style>.cls-1{fill:none;stroke:#ccc;stroke-linejoin:round;stroke-width:0.25px;}</style></defs><title>cube</title><g id="圖層_2" data-name="圖層 2"><g id="圖層_1-2" data-name="圖層 1"><polyline class="cls-1" points="52.87 0.11 0.13 30.56 52.87 61.01"/><polygon class="cls-1" points="52.87 61.01 52.87 61.01 52.87 61.01 52.87 61.01"/><polyline class="cls-1" points="52.87 61.01 52.87 61.01 105.61 30.56 52.87 0.11"/><polyline class="cls-1" points="52.87 61.01 52.87 61.01 0.13 30.56 0.13 30.56 0.13 91.46"/><polyline class="cls-1" points="105.61 91.46 105.61 30.56 105.61 30.56 52.87 61.01"/><polyline class="cls-1" points="52.87 61.01 52.87 61.01 52.87 121.91 105.61 91.46 105.61 91.46"/><polyline class="cls-1" points="0.13 91.46 0.13 91.46 52.87 121.91 52.87 61.01"/><polyline class="cls-1" points="158.31 0.11 105.57 30.56 158.31 61.01"/><polygon class="cls-1" points="158.31 61.01 158.31 61.01 158.31 61.01 158.31 61.01"/><polyline class="cls-1" points="158.31 61.01 158.31 61.01 211.05 30.56 158.31 0.11"/><polyline class="cls-1" points="158.31 61.01 158.31 61.01 105.57 30.56 105.57 30.56 105.57 91.46"/><polyline class="cls-1" points="211.05 91.46 211.05 30.56 211.05 30.56 158.31 61.01"/><polyline class="cls-1" points="158.31 61.01 158.31 61.01 158.31 121.91 211.05 91.46 211.05 91.46"/><polyline class="cls-1" points="105.57 91.46 105.57 91.46 158.31 121.91 158.31 61.01"/><polyline class="cls-1" points="105.59 91.42 52.85 121.87 105.59 152.32"/><polygon class="cls-1" points="105.59 152.32 105.59 152.32 105.59 152.32 105.59 152.32"/><polyline class="cls-1" points="105.59 152.32 105.59 152.32 158.33 121.87 105.59 91.42"/><polyline class="cls-1" points="105.59 152.32 105.59 152.32 52.85 121.87 52.85 121.87 52.85 182.77"/><polyline class="cls-1" points="158.33 182.77 158.33 121.87 158.33 121.87 105.59 152.32"/><polyline class="cls-1" points="105.59 152.32 105.59 152.32 105.59 213.22 158.33 182.77 158.33 182.77"/><polyline class="cls-1" points="52.85 182.77 52.85 182.77 105.59 213.22 105.59 152.32"/></g></g></svg>