<svg xmlns="http://www.w3.org/2000/svg" xmlns:xlink="http://www.w3.org/1999/xlink" viewBox="0 0 298.59 508.2"><defs><style>.cls-1{isolation:isolate;}.cls-2{fill:url(#linear-gradient);}.cls-15,.cls-3{fill:#a7ebff;}.cls-16,.cls-3{mix-blend-mode:multiply;}.cls-4{fill:url(#linear-gradient-2);}.cls-5{fill:url(#linear-gradient-3);}.cls-6{fill:url(#linear-gradient-4);}.cls-7{fill:url(#linear-gradient-5);}.cls-8{fill:url(#linear-gradient-6);}.cls-9{fill:url(#linear-gradient-7);}.cls-10{fill:url(#linear-gradient-8);}.cls-11{fill:url(#linear-gradient-9);}.cls-12{fill:url(#linear-gradient-10);}.cls-13{fill:url(#linear-gradient-11);}.cls-14{fill:url(#linear-gradient-12);}.cls-15,.cls-16{opacity:0.39;}.cls-17{fill:url(#linear-gradient-13);}.cls-18{fill:url(#linear-gradient-14);}.cls-19{fill:url(#linear-gradient-15);}.cls-20{fill:url(#linear-gradient-16);}.cls-21{fill:url(#linear-gradient-17);}.cls-22{fill:url(#linear-gradient-18);}.cls-23{fill:url(#linear-gradient-19);}.cls-24{fill:url(#linear-gradient-20);}.cls-25{fill:url(#linear-gradient-21);}.cls-26{fill:url(#linear-gradient-22);}.cls-27{fill:url(#linear-gradient-23);}.cls-28{fill:url(#linear-gradient-24);}.cls-29{fill:url(#linear-gradient-25);}.cls-30{fill:url(#linear-gradient-26);}.cls-31{fill:url(#linear-gradient-27);}.cls-32{fill:url(#linear-gradient-28);}.cls-33{fill:url(#linear-gradient-29);}.cls-34{fill:url(#linear-gradient-30);}.cls-35{fill:#b3f4ff;}.cls-36{fill:url(#linear-gradient-31);}.cls-37{fill:url(#linear-gradient-32);}.cls-38{fill:url(#linear-gradient-33);}.cls-39{fill:url(#linear-gradient-34);}.cls-40{fill:url(#linear-gradient-35);}.cls-41{fill:url(#linear-gradient-36);}.cls-42{fill:url(#linear-gradient-37);}.cls-43{fill:url(#linear-gradient-38);}.cls-44{fill:url(#linear-gradient-39);}.cls-45{fill:url(#linear-gradient-40);}.cls-46{fill:url(#linear-gradient-41);}.cls-47{fill:url(#linear-gradient-42);}.cls-48{fill:url(#linear-gradient-43);}.cls-49{fill:url(#linear-gradient-44);}.cls-50{fill:url(#linear-gradient-45);}.cls-51{fill:url(#linear-gradient-46);}.cls-52{fill:url(#linear-gradient-47);}.cls-53{fill:url(#linear-gradient-48);}.cls-54{fill:url(#linear-gradient-49);}</style><linearGradient id="linear-gradient" x1="1.23" y1="370.72" x2="127.17" y2="179.76" gradientTransform="matrix(-1, 0, 0, 1, 298.59, 0)" gradientUnits="userSpaceOnUse"><stop offset="0" stop-color="#fff"/><stop offset="0.05" stop-color="#f8fdff"/><stop offset="0.26" stop-color="#dcf6ff"/><stop offset="0.39" stop-color="#d1f3ff"/><stop offset="0.48" stop-color="#c8eefc"/><stop offset="0.62" stop-color="#b1e1f2"/><stop offset="0.81" stop-color="#8acbe3"/><stop offset="1" stop-color="#5bb0d1"/></linearGradient><linearGradient id="linear-gradient-2" x1="-35.55" y1="137.1" x2="138.44" y2="510.12" xlink:href="#linear-gradient"/><linearGradient id="linear-gradient-3" x1="106.69" y1="506.71" x2="274.2" y2="111.53" xlink:href="#linear-gradient"/><linearGradient id="linear-gradient-4" x1="85.96" y1="531.69" x2="178.75" y2="168.24" xlink:href="#linear-gradient"/><linearGradient id="linear-gradient-5" x1="218.64" y1="444.31" x2="259.87" y2="172.21" xlink:href="#linear-gradient"/><linearGradient id="linear-gradient-6" x1="185.02" y1="394.52" x2="200.95" y2="465.72" gradientTransform="matrix(-1, 0, 0, 1, 298.59, 0)" gradientUnits="userSpaceOnUse"><stop offset="0" stop-color="#fff"/><stop offset="0.05" stop-color="#f8fdff"/><stop offset="0.26" stop-color="#dcf6ff"/><stop offset="0.39" stop-color="#d1f3ff"/><stop offset="0.46" stop-color="#c8effd"/><stop offset="0.58" stop-color="#b1e6f9"/><stop offset="0.73" stop-color="#8ad5f2"/><stop offset="0.9" stop-color="#56bfe9"/><stop offset="1" stop-color="#33b1e3"/></linearGradient><linearGradient id="linear-gradient-7" x1="136.88" y1="549.01" x2="130.14" y2="373.91" xlink:href="#linear-gradient-6"/><linearGradient id="linear-gradient-8" x1="168.67" y1="437.03" x2="138.51" y2="529.38" xlink:href="#linear-gradient-6"/><linearGradient id="linear-gradient-9" x1="39.03" y1="434.78" x2="132.99" y2="434.78" xlink:href="#linear-gradient-6"/><linearGradient id="linear-gradient-10" x1="133.89" y1="446.92" x2="267.84" y2="99.57" xlink:href="#linear-gradient"/><linearGradient id="linear-gradient-11" x1="204.33" y1="436.74" x2="238.31" y2="212.5" xlink:href="#linear-gradient"/><linearGradient id="linear-gradient-12" x1="179.65" y1="514.41" x2="226.85" y2="126.47" xlink:href="#linear-gradient"/><linearGradient id="linear-gradient-13" x1="303.11" y1="-1488.01" x2="303.11" y2="-1358.26" gradientTransform="matrix(1, 0, 0, -1, -140.77, -1220.58)" gradientUnits="userSpaceOnUse"><stop offset="0" stop-color="#f0fcff"/><stop offset="0.07" stop-color="#dbf4fd"/><stop offset="0.2" stop-color="#b6e7fa"/><stop offset="0.32" stop-color="#9cddf7"/><stop offset="0.43" stop-color="#8cd7f6"/><stop offset="0.52" stop-color="#86d5f5"/><stop offset="0.62" stop-color="#7dd0f2"/><stop offset="0.78" stop-color="#66c1ea"/><stop offset="0.98" stop-color="#40aadc"/><stop offset="1" stop-color="#3ca8db"/></linearGradient><linearGradient id="linear-gradient-14" x1="302.09" y1="-1527.84" x2="303.18" y2="-1346.48" xlink:href="#linear-gradient-13"/><linearGradient id="linear-gradient-15" x1="310.77" y1="-1535.65" x2="319.47" y2="-1405.23" xlink:href="#linear-gradient-13"/><linearGradient id="linear-gradient-16" x1="315.33" y1="-1559" x2="316.42" y2="-1366.08" xlink:href="#linear-gradient-13"/><linearGradient id="linear-gradient-17" x1="327.77" y1="-1488.01" x2="327.77" y2="-1358.26" xlink:href="#linear-gradient-13"/><linearGradient id="linear-gradient-18" x1="334.09" y1="-1517.57" x2="343.35" y2="-1395.1" xlink:href="#linear-gradient-13"/><linearGradient id="linear-gradient-19" x1="334.03" y1="-1570.27" x2="348.03" y2="-1374.28" gradientTransform="matrix(1, 0, 0, -1, -140.77, -1220.58)" gradientUnits="userSpaceOnUse"><stop offset="0" stop-color="#f0fcff"/><stop offset="0.1" stop-color="#ecfbff"/><stop offset="0.2" stop-color="#e0f6fd"/><stop offset="0.3" stop-color="#cceffc"/><stop offset="0.4" stop-color="#b0e4f9"/><stop offset="0.5" stop-color="#8cd7f6"/><stop offset="0.52" stop-color="#86d5f5"/><stop offset="0.62" stop-color="#7dd0f2"/><stop offset="0.78" stop-color="#66c1ea"/><stop offset="0.98" stop-color="#40aadc"/><stop offset="1" stop-color="#3ca8db"/></linearGradient><linearGradient id="linear-gradient-20" x1="339.94" y1="-1529.45" x2="325.58" y2="-1371.56" gradientTransform="matrix(1, 0, 0, -1, -140.77, -1220.58)" gradientUnits="userSpaceOnUse"><stop offset="0" stop-color="#f0fcff"/><stop offset="0.22" stop-color="#c5ecfb"/><stop offset="0.52" stop-color="#86d5f5"/><stop offset="0.62" stop-color="#7dd0f2"/><stop offset="0.78" stop-color="#66c1ea"/><stop offset="0.98" stop-color="#40aadc"/><stop offset="1" stop-color="#3ca8db"/></linearGradient><linearGradient id="linear-gradient-21" x1="330.79" y1="-1563.7" x2="333.51" y2="-1375.07" xlink:href="#linear-gradient-13"/><linearGradient id="linear-gradient-22" x1="307.48" y1="-1589.4" x2="326.22" y2="-1459.85" gradientTransform="matrix(1, 0, 0, -1, -140.77, -1220.58)" gradientUnits="userSpaceOnUse"><stop offset="0" stop-color="#f0fcff"/><stop offset="0.29" stop-color="#cdeffc"/><stop offset="0.82" stop-color="#86d5f5"/><stop offset="0.86" stop-color="#7dd0f2"/><stop offset="0.92" stop-color="#66c1ea"/><stop offset="0.99" stop-color="#40aadc"/><stop offset="1" stop-color="#3ca8db"/></linearGradient><linearGradient id="linear-gradient-23" x1="295.96" y1="-1587.82" x2="331.07" y2="-1362.13" xlink:href="#linear-gradient-13"/><linearGradient id="linear-gradient-24" x1="274.63" y1="-1581.29" x2="362.06" y2="-1328.45" gradientTransform="matrix(1, 0, 0, -1, -140.77, -1220.58)" gradientUnits="userSpaceOnUse"><stop offset="0" stop-color="#fff"/><stop offset="0.07" stop-color="#edf9fe"/><stop offset="0.52" stop-color="#86d5f5"/><stop offset="0.62" stop-color="#7dd0f2"/><stop offset="0.78" stop-color="#66c1ea"/><stop offset="0.98" stop-color="#40aadc"/><stop offset="1" stop-color="#3ca8db"/></linearGradient><linearGradient id="linear-gradient-25" x1="265.96" y1="-1563.73" x2="300.82" y2="-1433.01" gradientTransform="matrix(1, 0, 0, -1, -140.77, -1220.58)" gradientUnits="userSpaceOnUse"><stop offset="0" stop-color="#fff"/><stop offset="0.09" stop-color="#eaf8fd"/><stop offset="0.35" stop-color="#b4e5f9"/><stop offset="0.55" stop-color="#93d9f6"/><stop offset="0.65" stop-color="#86d5f5"/><stop offset="0.72" stop-color="#7dd0f2"/><stop offset="0.84" stop-color="#66c1ea"/><stop offset="0.99" stop-color="#40aadc"/><stop offset="1" stop-color="#3ca8db"/></linearGradient><linearGradient id="linear-gradient-26" x1="262.71" y1="-1488.01" x2="262.71" y2="-1358.26" xlink:href="#linear-gradient-13"/><linearGradient id="linear-gradient-27" x1="228.2" y1="-1509.74" x2="289.38" y2="-1368.55" gradientTransform="matrix(1, 0, 0, -1, -140.77, -1220.58)" gradientUnits="userSpaceOnUse"><stop offset="0" stop-color="#f0fcff"/><stop offset="0.11" stop-color="#dbf4fd"/><stop offset="0.39" stop-color="#ade3f9"/><stop offset="0.59" stop-color="#91d9f6"/><stop offset="0.72" stop-color="#86d5f5"/><stop offset="0.77" stop-color="#7dd0f2"/><stop offset="0.87" stop-color="#66c1ea"/><stop offset="0.99" stop-color="#40aadc"/><stop offset="1" stop-color="#3ca8db"/></linearGradient><linearGradient id="linear-gradient-28" x1="279.24" y1="-1493.45" x2="279.24" y2="-1364.27" gradientTransform="matrix(1, 0, 0, -1, -140.77, -1220.58)" gradientUnits="userSpaceOnUse"><stop offset="0" stop-color="#f0fcff"/><stop offset="0.11" stop-color="#dbf4fd"/><stop offset="0.36" stop-color="#ade3f9"/><stop offset="0.56" stop-color="#91d9f6"/><stop offset="0.67" stop-color="#86d5f5"/><stop offset="0.74" stop-color="#7dd0f2"/><stop offset="0.85" stop-color="#66c1ea"/><stop offset="0.99" stop-color="#40aadc"/><stop offset="1" stop-color="#3ca8db"/></linearGradient><linearGradient id="linear-gradient-29" x1="307.83" y1="-1518.25" x2="295.89" y2="-1368.38" xlink:href="#linear-gradient-13"/><linearGradient id="linear-gradient-30" x1="322.37" y1="-1581.71" x2="322.91" y2="-1471.17" gradientTransform="matrix(1, 0, 0, -1, -140.77, -1220.58)" gradientUnits="userSpaceOnUse"><stop offset="0" stop-color="#f0fcff"/><stop offset="0.09" stop-color="#dbf4fd"/><stop offset="0.27" stop-color="#b6e7fa"/><stop offset="0.44" stop-color="#9cddf7"/><stop offset="0.59" stop-color="#8cd7f6"/><stop offset="0.7" stop-color="#86d5f5"/><stop offset="0.77" stop-color="#7dd0f2"/><stop offset="0.87" stop-color="#66c1ea"/><stop offset="0.99" stop-color="#40aadc"/><stop offset="1" stop-color="#3ca8db"/></linearGradient><linearGradient id="linear-gradient-31" x1="149.35" y1="65.67" x2="149.35" y2="148.67" gradientTransform="matrix(-1, 0, 0, 1, 298.59, 0)" xlink:href="#linear-gradient-13"/><linearGradient id="linear-gradient-32" x1="148.51" y1="41.03" x2="149.27" y2="167.59" gradientTransform="matrix(-1, 0, 0, 1, 298.59, 0)" xlink:href="#linear-gradient-13"/><linearGradient id="linear-gradient-33" x1="158.42" y1="34.73" x2="163.99" y2="118.35" gradientTransform="matrix(-1, 0, 0, 1, 298.59, 0)" xlink:href="#linear-gradient-13"/><linearGradient id="linear-gradient-34" x1="162.29" y1="4.48" x2="163.12" y2="152.39" gradientTransform="matrix(-1, 0, 0, 1, 298.59, 0)" xlink:href="#linear-gradient-13"/><linearGradient id="linear-gradient-35" x1="174.21" y1="65.67" x2="174.21" y2="148.67" gradientTransform="matrix(-1, 0, 0, 1, 298.59, 0)" xlink:href="#linear-gradient-13"/><linearGradient id="linear-gradient-36" x1="183.46" y1="46.49" x2="189.39" y2="124.89" gradientTransform="matrix(-1, 0, 0, 1, 298.59, 0)" xlink:href="#linear-gradient-13"/><linearGradient id="linear-gradient-37" x1="182.03" y1="12.25" x2="191.09" y2="139.12" gradientTransform="matrix(-1, 0, 0, 1, 298.59, 0)" xlink:href="#linear-gradient-19"/><linearGradient id="linear-gradient-38" x1="185.85" y1="39.34" x2="177.16" y2="134.98" gradientTransform="matrix(-1, 0, 0, 1, 298.59, 0)" xlink:href="#linear-gradient-20"/><linearGradient id="linear-gradient-39" x1="177.5" y1="17.25" x2="179.24" y2="137.79" gradientTransform="matrix(-1, 0, 0, 1, 298.59, 0)" xlink:href="#linear-gradient-13"/><linearGradient id="linear-gradient-40" x1="155.58" y1="0.53" x2="167.78" y2="84.89" gradientTransform="matrix(-1, 0, 0, 1, 298.59, 0)" xlink:href="#linear-gradient-22"/><linearGradient id="linear-gradient-41" x1="142.25" y1="2.41" x2="164.19" y2="143.4" gradientTransform="matrix(-1, 0, 0, 1, 298.59, 0)" xlink:href="#linear-gradient-13"/><linearGradient id="linear-gradient-42" x1="122.44" y1="6.72" x2="180.7" y2="175.22" gradientTransform="matrix(-1, 0, 0, 1, 298.59, 0)" xlink:href="#linear-gradient-24"/><linearGradient id="linear-gradient-43" x1="117.95" y1="16.18" x2="140.25" y2="99.8" gradientTransform="matrix(-1, 0, 0, 1, 298.59, 0)" xlink:href="#linear-gradient-25"/><linearGradient id="linear-gradient-44" x1="108.61" y1="65.67" x2="108.61" y2="148.67" gradientTransform="matrix(-1, 0, 0, 1, 298.59, 0)" xlink:href="#linear-gradient-13"/><linearGradient id="linear-gradient-45" x1="88.06" y1="47.94" x2="128.88" y2="142.14" gradientTransform="matrix(-1, 0, 0, 1, 298.59, 0)" xlink:href="#linear-gradient-27"/><linearGradient id="linear-gradient-46" x1="127.5" y1="57.92" x2="127.5" y2="155.23" gradientTransform="matrix(-1, 0, 0, 1, 298.59, 0)" xlink:href="#linear-gradient-28"/><linearGradient id="linear-gradient-47" x1="151.67" y1="40.26" x2="142.68" y2="152.99" gradientTransform="matrix(-1, 0, 0, 1, 298.59, 0)" xlink:href="#linear-gradient-13"/><linearGradient id="linear-gradient-48" x1="168.83" y1="5.73" x2="169.18" y2="76.45" gradientTransform="matrix(-1, 0, 0, 1, 298.59, 0)" xlink:href="#linear-gradient-30"/><linearGradient id="linear-gradient-49" x1="43.81" y1="508.52" x2="125.7" y2="187.81" xlink:href="#linear-gradient"/></defs><title>iceberg</title><g class="cls-1"><g id="圖層_2" data-name="圖層 2"><g id="Layer_2" data-name="Layer 2"><polygon class="cls-2" points="219 192.5 189.36 432.11 298.59 147.44 219 192.5"/><polygon class="cls-3" points="298.59 147.44 221.85 105.01 161.56 91.87 73.6 85.43 0 144.5 62.09 183.05 220 192.5 298.59 147.44"/><polygon class="cls-4" points="298.59 147.44 189.36 432.11 260.61 360.61 298.59 147.44"/><polygon class="cls-5" points="74.26 183.53 102.58 364.61 189.36 432.11 74.26 183.53"/><polygon class="cls-6" points="175 190.5 74.26 183.53 189.36 432.11 175 190.5"/><polygon class="cls-7" points="73.87 182.89 1 144.5 71.91 416.59 73.87 182.89"/><polygon class="cls-8" points="71.91 416.27 122.14 465.01 143.28 426.14 71.91 416.27"/><polygon class="cls-9" points="189.36 432.11 165.6 508.2 143.28 426.14 189.36 432.11"/><polygon class="cls-10" points="122.14 465.01 165.6 508.2 143.28 426.14 122.14 465.01"/><polygon class="cls-11" points="259.56 361.36 189.36 432.11 165.6 508.2 259.56 361.36"/><polygon class="cls-12" points="102.58 364.61 143.28 426.14 189.36 432.11 102.58 364.61"/><polygon class="cls-13" points="73.87 182.89 71.91 416.27 102.58 364.61 73.87 182.89"/><polygon class="cls-14" points="143.28 426.14 102.58 364.61 71.91 416.27 143.28 426.14"/><path class="cls-15" d="M215.33,135.54s-.09-1.54-5-6.72c-4.87-2.24-1.91-3.37-10.26-7.22l-13.49-.87-15.05,6.34-16.1,6.37-16.62-6-32.71-10.18L77.61,120c-16.7,11.45-15.49,17.5-15.49,17.5l.26,4.8a126.41,126.41,0,0,1,33.93,4.16c8.35.77,15.4-3.21,25.84-2.24,10.44-3.25,8.44,7.31,19.58,3.84,5.57-2,8.27,3.74,13.75,1.78,5.48,2.17,10.26-.65,15.48,1.42s10.09-8.41,14.88-6.4c4.79-.31,13.83-.37,18-.64,8.35-3.85,7.13-.31,12-2.56,4.87-5.18,5.74-6.72,5.74-6.72Z"/><g class="cls-16"><polygon class="cls-17" points="209.04 205.87 211.66 288.39 198.02 303.1 189.63 345.58 177.28 358.4 166.02 370.09 144.5 363.56 137.37 349.03 130.86 335.78 125.62 277.77 119.53 258.01 113.02 236.92 123.44 180.86 130.34 143.78 146.6 143.78 158.15 143.78 171.79 143.78 180.71 143.78 193.3 180.55 209.04 205.87"/><polygon class="cls-18" points="153.95 321.89 130.86 235.29 146.6 143.78 151.85 143.78 158.15 143.78 162.34 189.53 192.77 214.04 183.33 292.48 153.95 321.89"/><polygon class="cls-19" points="153.95 321.89 158.89 243.96 162.34 189.53 192.77 214.04 183.33 292.48 153.95 321.89"/><polygon class="cls-20" points="158.15 143.78 162.34 189.53 192.77 214.04 180.71 143.78 158.15 143.78"/><polygon class="cls-21" points="180.71 143.78 193.3 180.55 192.77 214.04 180.71 143.78"/><polygon class="cls-22" points="209.04 205.87 192.77 214.04 193.3 180.55 209.04 205.87"/><polygon class="cls-23" points="183.33 292.48 211.66 288.39 209.04 205.87 192.77 214.04 183.33 292.48"/><polygon class="cls-24" points="198.02 303.1 183.33 292.48 211.66 288.39 198.02 303.1"/><polygon class="cls-25" points="189.63 345.58 183.33 292.48 198.02 303.1 189.63 345.58"/><polygon class="cls-26" points="166.02 370.09 153.95 321.89 173.94 301.88 183.33 292.48 189.63 345.58 176.87 358.82 166.02 370.09"/><polygon class="cls-27" points="153.95 321.89 144.5 363.56 166.02 370.09 153.95 321.89"/><polygon class="cls-28" points="130.86 335.78 153.95 321.89 144.5 363.56 130.86 335.78"/><polygon class="cls-29" points="125.62 277.77 130.86 235.29 153.95 321.89 130.86 335.78 125.62 277.77"/><polygon class="cls-30" points="113.02 236.92 130.86 235.29 125.62 277.77 113.02 236.92"/><polygon class="cls-31" points="130.34 143.78 130.86 235.29 113.02 236.92 130.34 143.78"/><polygon class="cls-32" points="146.6 143.78 130.86 235.29 130.34 143.78 146.6 143.78"/><polygon class="cls-33" points="151.85 143.78 158.89 243.96 162.34 189.53 158.15 143.78 151.85 143.78"/><polygon class="cls-34" points="176.87 358.82 173.94 301.88 183.33 292.48 189.63 345.58 176.87 358.82"/></g><path class="cls-35" d="M176,133.16s5.48,3.19,3.33-1.33c-2.15-2,4.68-.6,1-4l-5.94-.76-6.63,5.54-7.09,5.57L153.34,133l-14.41-8.89-12.57,2.32c-7.36,10-3.69,6.07-3.69,6.07l-.67,8.67s1.31-.67,8.67,9.33c3.68.68,6.07,2.48,10.67,3.33,4.6-2.84,7.1,6.9,12,3.87,2.45-1.74,3.57.51,6-1.21,2.42,1.89,5-4.47,7.33-2.67s2.56-1.76,4.67,0c2-4.67,9.33-7.33,13.33-5.33,3.68-3.36.52-4,2.67-6,2.15-4.52-10.67-6.67-10.67-6.67Z"/><polygon class="cls-36" points="102.15 105.04 99.51 52.26 113.27 42.85 121.73 15.68 134.18 7.48 145.54 0 167.23 4.18 174.42 13.47 180.99 21.95 186.28 59.05 192.42 71.69 198.97 85.19 188.47 121.04 181.52 144.76 165.11 144.76 153.47 144.76 139.72 144.76 130.72 144.76 118.03 121.24 102.15 105.04"/><polygon class="cls-37" points="157.71 30.83 180.99 86.23 165.11 144.76 160.67 155.16 153.47 144.76 149.24 115.5 118.56 99.82 128.08 49.65 157.71 30.83"/><polygon class="cls-38" points="157.71 30.83 152.72 80.69 149.24 115.5 118.56 99.82 128.08 49.65 157.71 30.83"/><polygon class="cls-39" points="152.67 153.83 149.24 115.5 118.56 99.82 130.72 144.76 152.67 153.83"/><polygon class="cls-40" points="130.72 144.76 118.03 121.24 118.56 99.82 130.72 144.76"/><polygon class="cls-41" points="102.15 105.04 118.56 99.82 118.03 121.24 102.15 105.04"/><polygon class="cls-42" points="128.08 49.65 99.51 52.26 102.15 105.04 118.56 99.82 128.08 49.65"/><polygon class="cls-43" points="113.27 42.85 128.08 49.65 99.51 52.26 113.27 42.85"/><polygon class="cls-44" points="121.73 15.68 128.08 49.65 113.27 42.85 121.73 15.68"/><polygon class="cls-45" points="145.54 0 157.71 30.83 137.54 43.64 128.08 49.65 121.73 15.68 134.59 7.21 145.54 0"/><polygon class="cls-46" points="157.71 30.83 167.23 4.18 145.54 0 157.71 30.83"/><polygon class="cls-47" points="180.99 21.95 157.71 30.83 167.23 4.18 180.99 21.95"/><polygon class="cls-48" points="186.28 59.05 180.99 86.23 157.71 30.83 180.99 21.95 186.28 59.05"/><polygon class="cls-49" points="198.97 85.19 180.99 86.23 186.28 59.05 198.97 85.19"/><polygon class="cls-50" points="181.52 144.76 180.99 86.23 198.97 85.19 181.52 144.76"/><polygon class="cls-51" points="160.67 155.16 180.99 86.23 181.52 144.76 160.67 155.16"/><polygon class="cls-52" points="160.67 155.83 152.72 80.69 149.24 115.5 151.33 152.5 160.67 155.83"/><polygon class="cls-53" points="134.59 7.21 137.54 43.64 128.08 49.65 121.73 15.68 134.59 7.21"/><polygon class="cls-54" points="220 192.5 175 190.5 189.36 432.11 220 192.5"/></g></g></g></svg>