<svg xmlns="http://www.w3.org/2000/svg" xmlns:xlink="http://www.w3.org/1999/xlink" viewBox="0 0 744 1008.45"><defs><style>.cls-1{isolation:isolate;}.cls-2{fill:url(#linear-gradient);}.cls-3,.cls-31{fill:#a7ebff;}.cls-3,.cls-7{mix-blend-mode:multiply;}.cls-4{fill:url(#linear-gradient-2);}.cls-5{fill:url(#linear-gradient-3);}.cls-6{fill:url(#linear-gradient-4);}.cls-7{opacity:0.44;}.cls-8{fill:url(#linear-gradient-5);}.cls-9{fill:url(#linear-gradient-6);}.cls-10{fill:url(#linear-gradient-7);}.cls-11{fill:url(#linear-gradient-8);}.cls-12{fill:url(#linear-gradient-9);}.cls-13{fill:url(#linear-gradient-10);}.cls-14{fill:url(#linear-gradient-11);}.cls-15{fill:url(#linear-gradient-12);}.cls-16{fill:url(#linear-gradient-13);}.cls-17{fill:url(#linear-gradient-14);}.cls-18{fill:url(#linear-gradient-15);}.cls-19{fill:url(#linear-gradient-16);}.cls-20{fill:url(#linear-gradient-17);}.cls-21{fill:url(#linear-gradient-18);}.cls-22{fill:url(#linear-gradient-19);}.cls-23{fill:url(#linear-gradient-20);}.cls-24{fill:url(#linear-gradient-21);}.cls-25{fill:url(#linear-gradient-22);}.cls-26{fill:url(#linear-gradient-23);}.cls-27{fill:url(#linear-gradient-24);}.cls-28{fill:url(#linear-gradient-25);}.cls-29{fill:url(#linear-gradient-26);}.cls-30{fill:url(#linear-gradient-27);}.cls-31{opacity:0.39;}.cls-32{fill:url(#linear-gradient-28);}.cls-33{fill:url(#linear-gradient-29);}.cls-34{fill:url(#linear-gradient-30);}.cls-35{fill:url(#linear-gradient-31);}.cls-36{fill:url(#linear-gradient-32);}.cls-37{fill:url(#linear-gradient-33);}.cls-38{fill:url(#linear-gradient-34);}.cls-39{fill:url(#linear-gradient-35);}.cls-40{fill:url(#linear-gradient-36);}.cls-41{fill:url(#linear-gradient-37);}.cls-42{fill:url(#linear-gradient-38);}.cls-43{fill:url(#linear-gradient-39);}.cls-44{fill:url(#linear-gradient-40);}.cls-45{fill:url(#linear-gradient-41);}.cls-46{fill:url(#linear-gradient-42);}.cls-47{fill:#ccd1df;}</style><linearGradient id="linear-gradient" x1="34.48" y1="712.53" x2="340.48" y2="248.53" gradientUnits="userSpaceOnUse"><stop offset="0" stop-color="#fff"/><stop offset="0.05" stop-color="#f8fdff"/><stop offset="0.26" stop-color="#dcf6ff"/><stop offset="0.39" stop-color="#d1f3ff"/><stop offset="0.48" stop-color="#c8eefc"/><stop offset="0.62" stop-color="#b1e1f2"/><stop offset="0.81" stop-color="#8acbe3"/><stop offset="1" stop-color="#5bb0d1"/></linearGradient><linearGradient id="linear-gradient-2" x1="-66.52" y1="229.69" x2="308.46" y2="1033.65" xlink:href="#linear-gradient"/><linearGradient id="linear-gradient-3" x1="288.92" y1="1017.63" x2="650.92" y2="163.63" xlink:href="#linear-gradient"/><linearGradient id="linear-gradient-4" x1="258.26" y1="1069.74" x2="456.25" y2="294.28" xlink:href="#linear-gradient"/><linearGradient id="linear-gradient-5" x1="767.27" y1="198.26" x2="767.27" y2="350.44" gradientTransform="matrix(-1.14, -0.03, 0.08, -3.13, 1249.55, 1389.98)" xlink:href="#linear-gradient"/><linearGradient id="linear-gradient-6" x1="632.78" y1="293.2" x2="621.93" y2="359.55" gradientTransform="matrix(-1.14, -0.03, 0.08, -3.13, 1249.55, 1389.98)" xlink:href="#linear-gradient"/><linearGradient id="linear-gradient-7" x1="652.7" y1="292.73" x2="651.47" y2="351.56" gradientTransform="matrix(-1.14, -0.03, 0.08, -3.13, 1249.55, 1389.98)" xlink:href="#linear-gradient"/><linearGradient id="linear-gradient-8" x1="660.74" y1="277.28" x2="653.5" y2="358.09" gradientTransform="matrix(-1.14, -0.03, 0.08, -3.13, 1249.55, 1389.98)" xlink:href="#linear-gradient"/><linearGradient id="linear-gradient-9" x1="699.44" y1="289.14" x2="722.07" y2="351.07" gradientTransform="matrix(-1.14, -0.03, 0.08, -3.13, 1249.55, 1389.98)" xlink:href="#linear-gradient"/><linearGradient id="linear-gradient-10" x1="719.44" y1="258.2" x2="700.15" y2="354.66" gradientTransform="matrix(-1.14, -0.03, 0.08, -3.13, 1249.55, 1389.98)" xlink:href="#linear-gradient"/><linearGradient id="linear-gradient-11" x1="744.3" y1="265.59" x2="747.99" y2="356.58" gradientTransform="matrix(-1.14, -0.03, 0.08, -3.13, 1249.55, 1389.98)" xlink:href="#linear-gradient"/><linearGradient id="linear-gradient-12" x1="773.79" y1="275.57" x2="773.79" y2="356.56" gradientTransform="matrix(-1.14, -0.03, 0.08, -3.13, 1249.55, 1389.98)" xlink:href="#linear-gradient"/><linearGradient id="linear-gradient-13" x1="783.99" y1="244.41" x2="839.39" y2="350.39" gradientTransform="matrix(-1.14, -0.03, 0.08, -3.13, 1249.55, 1389.98)" xlink:href="#linear-gradient"/><linearGradient id="linear-gradient-14" x1="817.26" y1="215.75" x2="830.83" y2="372.39" gradientTransform="matrix(-1.14, -0.03, 0.08, -3.13, 1249.55, 1389.98)" gradientUnits="userSpaceOnUse"><stop offset="0" stop-color="#fff"/><stop offset="0.09" stop-color="#f8fdff"/><stop offset="0.49" stop-color="#dcf6ff"/><stop offset="0.72" stop-color="#d1f3ff"/><stop offset="0.76" stop-color="#c8eefc"/><stop offset="0.83" stop-color="#b1e1f2"/><stop offset="0.91" stop-color="#8acbe3"/><stop offset="1" stop-color="#5bb0d1"/></linearGradient><linearGradient id="linear-gradient-15" x1="825.56" y1="198.26" x2="825.56" y2="350.55" gradientTransform="matrix(-1.14, -0.03, 0.08, -3.13, 1249.55, 1389.98)" gradientUnits="userSpaceOnUse"><stop offset="0" stop-color="#fff"/><stop offset="0.08" stop-color="#f8fdff"/><stop offset="0.46" stop-color="#dcf6ff"/><stop offset="0.68" stop-color="#d1f3ff"/><stop offset="0.73" stop-color="#c8eefc"/><stop offset="0.8" stop-color="#b1e1f2"/><stop offset="0.9" stop-color="#8acbe3"/><stop offset="1" stop-color="#5bb0d1"/></linearGradient><linearGradient id="linear-gradient-16" x1="870.06" y1="198.26" x2="870.06" y2="350.55" gradientTransform="matrix(-1.14, -0.03, 0.08, -3.13, 1249.55, 1389.98)" xlink:href="#linear-gradient"/><linearGradient id="linear-gradient-17" x1="913.67" y1="192.14" x2="916.22" y2="360.04" gradientTransform="matrix(-1.14, -0.03, 0.08, -3.13, 1249.55, 1389.98)" gradientUnits="userSpaceOnUse"><stop offset="0" stop-color="#fff"/><stop offset="0.05" stop-color="#f8fdff"/><stop offset="0.26" stop-color="#dcf6ff"/><stop offset="0.39" stop-color="#d1f3ff"/><stop offset="0.46" stop-color="#c8effd"/><stop offset="0.58" stop-color="#b1e6f9"/><stop offset="0.73" stop-color="#8ad5f2"/><stop offset="0.9" stop-color="#56bfe9"/><stop offset="1" stop-color="#33b1e3"/></linearGradient><linearGradient id="linear-gradient-18" x1="892.72" y1="198.26" x2="892.72" y2="350.55" gradientTransform="matrix(-1.14, -0.03, 0.08, -3.13, 1249.55, 1389.98)" gradientUnits="userSpaceOnUse"><stop offset="0" stop-color="#fff"/><stop offset="0.04" stop-color="#effbff"/><stop offset="0.09" stop-color="#def6ff"/><stop offset="0.15" stop-color="#d4f4ff"/><stop offset="0.22" stop-color="#d1f3ff"/><stop offset="0.34" stop-color="#c8eefc"/><stop offset="0.52" stop-color="#b1e1f2"/><stop offset="0.76" stop-color="#8acbe3"/><stop offset="1" stop-color="#5bb0d1"/></linearGradient><linearGradient id="linear-gradient-19" x1="907.57" y1="190" x2="915.07" y2="310.01" gradientTransform="matrix(-1.14, -0.03, 0.08, -3.13, 1249.55, 1389.98)" xlink:href="#linear-gradient"/><linearGradient id="linear-gradient-20" x1="566.09" y1="868.25" x2="641.09" y2="373.27" xlink:href="#linear-gradient"/><linearGradient id="linear-gradient-21" x1="474.33" y1="766.76" x2="508.33" y2="918.76" gradientTransform="matrix(1, 0, 0, 1, 0, 0)" xlink:href="#linear-gradient-17"/><linearGradient id="linear-gradient-22" x1="347.44" y1="1093.3" x2="333.44" y2="729.3" gradientTransform="matrix(1, 0, 0, 1, 0, 0)" xlink:href="#linear-gradient-17"/><linearGradient id="linear-gradient-23" x1="428.42" y1="861.66" x2="364.42" y2="1057.66" gradientTransform="matrix(1, 0, 0, 1, 0, 0)" xlink:href="#linear-gradient-17"/><linearGradient id="linear-gradient-24" x1="99.7" y1="855.46" x2="339.69" y2="855.46" gradientTransform="matrix(1, 0, 0, 1, 0, 0)" xlink:href="#linear-gradient-17"/><linearGradient id="linear-gradient-25" x1="347.89" y1="888.34" x2="647.89" y2="110.34" xlink:href="#linear-gradient"/><linearGradient id="linear-gradient-26" x1="525.38" y1="858.45" x2="596.16" y2="391.31" xlink:href="#linear-gradient"/><linearGradient id="linear-gradient-27" x1="463.61" y1="1026.35" x2="563.61" y2="204.35" xlink:href="#linear-gradient"/><linearGradient id="linear-gradient-28" x1="406.35" y1="8.32" x2="406.35" y2="237.84" xlink:href="#linear-gradient"/><linearGradient id="linear-gradient-29" x1="249.48" y1="148.25" x2="235.03" y2="236.53" xlink:href="#linear-gradient"/><linearGradient id="linear-gradient-30" x1="269.09" y1="145.24" x2="267.32" y2="230.52" xlink:href="#linear-gradient"/><linearGradient id="linear-gradient-31" x1="280.02" y1="125.5" x2="269.8" y2="239.64" xlink:href="#linear-gradient"/><linearGradient id="linear-gradient-32" x1="323.76" y1="144.27" x2="355.05" y2="229.91" xlink:href="#linear-gradient"/><linearGradient id="linear-gradient-33" x1="347.1" y1="96.66" x2="318.18" y2="241.26" xlink:href="#linear-gradient"/><linearGradient id="linear-gradient-34" x1="370.71" y1="105.42" x2="376.68" y2="252.8" xlink:href="#linear-gradient"/><linearGradient id="linear-gradient-35" x1="406.46" y1="120.3" x2="406.46" y2="237.92" xlink:href="#linear-gradient"/><linearGradient id="linear-gradient-36" x1="410.93" y1="73.93" x2="488.99" y2="223.26" xlink:href="#linear-gradient"/><linearGradient id="linear-gradient-37" x1="455.05" y1="33.07" x2="474.91" y2="262.37" gradientTransform="matrix(1, 0, 0, 1, 0, 0)" xlink:href="#linear-gradient-14"/><linearGradient id="linear-gradient-38" x1="465.34" y1="8.02" x2="465.34" y2="229.19" gradientTransform="matrix(1, 0, 0, 1, 0, 0)" xlink:href="#linear-gradient-15"/><linearGradient id="linear-gradient-39" x1="515.96" y1="8.13" x2="515.96" y2="232.29" xlink:href="#linear-gradient"/><linearGradient id="linear-gradient-40" x1="568.52" y1="4.97" x2="572.07" y2="239.38" gradientTransform="matrix(1, 0, 0, 1, 0, 0)" xlink:href="#linear-gradient-17"/><linearGradient id="linear-gradient-41" x1="541.73" y1="8.02" x2="541.73" y2="229.19" gradientTransform="matrix(1, 0, 0, 1, 0, 0)" xlink:href="#linear-gradient-18"/><linearGradient id="linear-gradient-42" x1="559.81" y1="-1.43" x2="570.43" y2="168.47" xlink:href="#linear-gradient"/></defs><title>iceland</title><g class="cls-1"><g id="圖層_2" data-name="圖層 2"><g id="Layer_2" data-name="Layer 2"><polygon class="cls-2" points="318 340.89 279 849.89 0 256.68 318 340.89"/><polygon class="cls-3" points="0 256.68 196 168.26 350 140.89 744 197.73 722 324.05 322 340.89 0 256.68"/><polygon class="cls-4" points="0 256.68 279 849.89 97 700.89 0 256.68"/><polygon class="cls-5" points="573 331.89 500.67 709.22 279 849.89 573 331.89"/><polygon class="cls-6" points="318 340.89 573 331.89 279 849.89 318 340.89"/><g class="cls-7"><polygon class="cls-8" points="215.33 235.22 222.83 405.33 235.43 542.54 271.38 652.92 307.32 763.3 343.38 661.79 386.47 540.5 424 512.97 459.77 486.73 530.86 434.57 572.49 314.58 594.67 240.56 565.09 240.46 537.49 240.59 504.34 240.75 469.34 240.92 434.34 241.09 360.67 241.45 307.29 241.71 255.73 241.96 215.33 235.22"/><polygon class="cls-9" points="563.09 240.46 528.86 434.57 596.25 240.29 563.09 240.46"/><polygon class="cls-10" points="565.09 240.46 530.86 434.57 505.67 335.98 565.09 240.46"/><polygon class="cls-11" points="505.67 335.98 504.34 240.75 565.09 240.46 505.67 335.98"/><polygon class="cls-12" points="530.86 434.57 505.67 335.98 424 512.97 530.86 434.57"/><polygon class="cls-13" points="504.34 240.75 469.34 240.92 424 512.97 505.67 335.98 504.34 240.75"/><polygon class="cls-14" points="469.34 240.92 424 512.97 386.47 540.5 382.37 407.86 434.34 241.09 469.34 240.92"/><polygon class="cls-15" points="434.34 241.09 382.37 407.86 360.67 241.45 434.34 241.09"/><polygon class="cls-16" points="386.47 540.5 382.37 407.86 360.67 241.45 307.29 241.71 365.24 430.49 343.38 661.79 386.47 540.5"/><polygon class="cls-17" points="343.38 661.79 307.32 763.3 365.24 430.49 343.38 661.79"/><polygon class="cls-18" points="307.29 241.71 307.32 763.3 365.24 430.49 307.29 241.71"/><path class="cls-19" d="M307.32,763.3c-2.83-34.65,0-521.59,0-521.59l-51.56.25,15.65,411Z"/><polygon class="cls-20" points="215.33 234.56 250.87 439.19 255.73 241.96 215.33 234.56"/><polygon class="cls-21" points="271.38 652.92 255.73 241.96 250.87 439.19 235.43 542.54 271.38 652.92"/><polygon class="cls-22" points="235.43 542.54 215.33 234.56 250.87 439.19 235.43 542.54"/></g><polygon class="cls-23" points="574 330.56 722 324.71 579 817.56 574 330.56"/><polygon class="cls-24" points="579 816.89 450.68 918.45 396.69 837.46 579 816.89"/><polygon class="cls-25" points="279 849.89 339.69 1008.45 396.69 837.46 279 849.89"/><polygon class="cls-26" points="450.68 918.45 339.69 1008.45 396.69 837.46 450.68 918.45"/><polygon class="cls-27" points="99.7 702.47 279 849.89 339.69 1008.45 99.7 702.47"/><polygon class="cls-28" points="500.67 709.22 396.69 837.46 279 849.89 500.67 709.22"/><polygon class="cls-29" points="574 330.56 579 816.89 500.67 709.22 574 330.56"/><polygon class="cls-30" points="396.69 837.46 500.67 709.22 579 816.89 396.69 837.46"/><path class="cls-31" d="M212.67,231.89s.22-3.22,12.67-14c12.44-4.68,4.87-7,26.21-15L286,201l38.44,13.22,41.11,13.27L408,215.1l83.56-21.21,72.89,5.53C607.1,223.27,604,235.89,604,235.89l-.67,10a393,393,0,0,0-86.67,8.67c-21.33,1.61-39.33-6.69-66-4.67-26.67-6.77-21.56,15.23-50,8-14.22-4.16-21.13,7.8-35.13,3.7-14,4.52-26.21-1.35-39.54,3-13.33,4.58-25.78-17.54-38-13.33-12.22-.64-35.33-.77-46-1.33-21.33-8-18.22-.66-30.67-5.33-12.44-10.78-14.67-14-14.67-14Z"/><polygon class="cls-32" points="596.02 240.59 577.03 165.09 561.05 101.58 522.4 50.79 483.75 0 450.2 47.5 410.12 104.26 373.28 117.46 338.17 130.04 268.39 155.05 229.74 211.19 216.67 234.56 238.95 245.49 266.55 245.11 299.67 244.65 334.66 244.17 370 255.22 443.28 242.69 494 250.56 548.17 241.25 596.02 240.59"/><polygon class="cls-33" points="238.95 245.49 268.39 155.05 215.33 234.56 238.95 245.49"/><polygon class="cls-34" points="238.95 245.49 268.39 155.05 296 200.49 238.95 245.49"/><polygon class="cls-35" points="296 200.49 299.67 244.65 238.95 245.49 296 200.49"/><polygon class="cls-36" points="268.39 155.05 296 200.49 373.28 117.46 268.39 155.05"/><polygon class="cls-37" points="299.67 244.65 332 259.89 373.28 117.46 296 200.49 299.67 244.65"/><polygon class="cls-38" points="332.67 260.56 373.28 117.46 410.12 104.26 417.48 165.74 369.64 243.69 332.67 260.56"/><polygon class="cls-39" points="369.64 243.69 417.48 165.74 443.28 242.69 369.64 243.69"/><polygon class="cls-40" points="410.12 104.26 417.48 165.74 446 242.56 496.64 241.96 434.05 155.05 450.2 47.5 410.12 104.26"/><polygon class="cls-41" points="450.2 47.5 483.75 0 434.05 155.05 450.2 47.5"/><polygon class="cls-42" points="496.64 241.96 483.75 0 434.05 155.05 496.64 241.96"/><path class="cls-43" d="M483.75,0c3.68,16,27.59,245.22,27.59,245.22l36.84-4L522.4,50.79Z"/><polygon class="cls-44" points="596.02 240.59 548.17 149.7 548.17 241.25 596.02 240.59"/><polygon class="cls-45" points="522.4 50.79 548.17 241.25 548.17 149.7 561.05 101.58 522.4 50.79"/><polygon class="cls-46" points="561.05 101.58 596.02 240.59 548.17 149.7 561.05 101.58"/><polygon class="cls-47" points="289.19 137.47 287.22 145.85 290.88 150.91 289.19 137.47"/><path class="cls-47" d="M289.14,137.47,292,139l.62,2.36s-1.75,10-1.75,9.49C290.82,150.14,289.14,137.47,289.14,137.47Z"/><polygon class="cls-47" points="289.36 137.58 291.39 135.89 291.95 138.94 289.36 137.58"/><polygon class="cls-47" points="293.36 137.98 291.84 137.81 291.56 136.68 293.36 137.98"/><polygon class="cls-47" points="287.27 145.81 288.29 149.52 290.82 150.87 287.27 145.81"/><polygon class="cls-47" points="288.43 141.19 286.87 143.39 286.82 145.84 288.43 141.19"/><polygon class="cls-47" points="292.62 142.07 293.04 143.72 292.51 145.18 292.62 142.07"/><polygon class="cls-47" points="280.37 144.52 278.4 152.9 282.06 157.97 280.37 144.52"/><path class="cls-47" d="M280.31,144.52l2.82,1.54.62,2.36s-1.75,10-1.75,9.49C282,157.19,280.31,144.52,280.31,144.52Z"/><polygon class="cls-47" points="280.54 144.63 282.57 142.94 283.13 145.98 280.54 144.63"/><polygon class="cls-47" points="284.54 145.03 283.02 144.86 282.74 143.73 284.54 145.03"/><polygon class="cls-47" points="278.45 152.86 279.47 156.57 282 157.92 278.45 152.86"/><polygon class="cls-47" points="279.61 148.24 278.04 150.44 278 152.89 279.61 148.24"/><polygon class="cls-47" points="283.8 149.12 284.22 150.77 283.69 152.22 283.8 149.12"/></g></g></g></svg>